HIERARCHY
ROOT Hips
{
    OFFSET 0.000000 0.000000 0.000000
    CHANNELS 6 Xposition Yposition Zposition Zrotation Xrotation Yrotation
    JOINT Spine
    {
        OFFSET -0.000000 8.339920 0.000000
        CHANNELS 3 Zrotation Xrotation Yrotation
        JOINT Spine1
        {
            OFFSET -0.000000 25.214485 0.000000
            CHANNELS 3 Zrotation Xrotation Yrotation
            JOINT Neck
            {
                OFFSET -0.000000 25.110935 2.282812
                CHANNELS 3 Zrotation Xrotation Yrotation
                JOINT Head
                {
                    OFFSET -0.000000 14.238888 -2.034127
                    CHANNELS 3 Zrotation Xrotation Yrotation
                    End Site
                    {
                        OFFSET -0.000000 25.426584 0.000000
                    }
                }
            }
            JOINT LeftShoulder
            {
                OFFSET 4.025024 23.158985 -0.185822
                CHANNELS 3 Zrotation Xrotation Yrotation
                JOINT LeftArm
                {
                    OFFSET 11.674057 0.000000 0.000000
                    CHANNELS 3 Zrotation Xrotation Yrotation
                    JOINT LeftForeArm
                    {
                        OFFSET 31.688633 0.000000 0.000000
                        CHANNELS 3 Zrotation Xrotation Yrotation
                        JOINT LeftHand
                        {
                            OFFSET 29.704493 0.000000 0.000000
                            CHANNELS 3 Zrotation Xrotation Yrotation
                            End Site
                            {
                                OFFSET 15.255952 0.000000 0.000000
                            }
                        }
                    }
                }
            }
            JOINT RightShoulder
            {
                OFFSET -4.099539 23.158985 -0.185822
                CHANNELS 3 Zrotation Xrotation Yrotation
                JOINT RightArm
                {
                    OFFSET -11.674057 0.000000 0.000000
                    CHANNELS 3 Zrotation Xrotation Yrotation
                    JOINT RightForeArm
                    {
                        OFFSET -31.688633 0.000000 0.000000
                        CHANNELS 3 Zrotation Xrotation Yrotation
                        JOINT RightHand
                        {
                            OFFSET -29.704493 0.000000 0.000000
                            CHANNELS 3 Zrotation Xrotation Yrotation
                            End Site
                            {
                                OFFSET -15.255952 0.000000 0.000000
                            }
                        }
                    }
                }
            }
        }
    }
    JOINT LeftUpLeg
    {
        OFFSET 10.170634 0.000000 0.000000
        CHANNELS 3 Zrotation Xrotation Yrotation
        JOINT LeftLeg
        {
            OFFSET -0.000000 -41.352962 0.000000
            CHANNELS 3 Zrotation Xrotation Yrotation
            JOINT LeftFoot
            {
                OFFSET -0.000000 -47.535004 0.000000
                CHANNELS 3 Zrotation Xrotation Yrotation
                JOINT LeftToeBase
                {
                    OFFSET -0.000000 -6.610912 15.255952
                    CHANNELS 3 Zrotation Xrotation Yrotation
                    End Site
                    {
                        OFFSET -0.000000 0.000000 4.068254
                    }
                }
            }
        }
    }
    JOINT RightUpLeg
    {
        OFFSET -10.170634 0.000000 0.000000
        CHANNELS 3 Zrotation Xrotation Yrotation
        JOINT RightLeg
        {
            OFFSET -0.000000 -41.352962 0.000000
            CHANNELS 3 Zrotation Xrotation Yrotation
            JOINT RightFoot
            {
                OFFSET -0.000000 -47.535004 0.000000
                CHANNELS 3 Zrotation Xrotation Yrotation
                JOINT RightToeBase
                {
                    OFFSET -0.000000 -6.610912 15.255952
                    CHANNELS 3 Zrotation Xrotation Yrotation
                    End Site
                    {
                        OFFSET -0.000000 0.000000 4.068254
                    }
                }
            }
        }
    }
}
MOTION
Frames:    14
Frame Time:    0.008333
130.411591    96.988091    46.350967    -7.541193    -2.191490    83.588356    4.200713    -6.879174    -2.416316    1.397971    8.638259    -2.774494    -5.568013    26.992968    -0.563751    1.434339    -4.960254    -0.904531    8.134762    4.537888    -6.246189    -77.563904    50.771431    7.417201    12.861956    -16.841799    -32.757744    -25.006092    -13.116579    -0.267132    -12.161267    0.983377    -2.568360    67.058075    54.126072    3.311249    -7.160473    -9.292064    27.280306    -6.882367    -7.914540    5.760659    4.052367    -2.644673    4.890450    -2.936524    4.057662    9.777309    -3.849129    5.745428    -7.289573    0.000000    0.000000    0.000000    5.921215    -16.103754    7.912903    -3.188178    11.406177    0.684045    3.689678    -8.102193    -4.733786    0.000000    0.000000    0.000000    
130.744980    96.774567    46.504784    -7.531169    -2.004197    83.757660    4.041193    -7.008667    -2.302249    1.238474    8.660405    -2.643621    -5.486043    26.787865    -0.445690    1.520443    -5.079934    -0.744252    8.291866    4.660775    -6.378916    -76.817047    50.207874    6.667092    12.614097    -16.807886    -32.796085    -24.310289    -13.174271    -0.156802    -12.029718    1.176584    -2.542416    66.444862    53.957108    3.678826    -7.061596    -9.269066    27.027708    -6.998783    -7.950041    5.967833    3.929058    -2.623011    4.571748    -2.979325    4.410174    9.917205    -3.794739    4.826403    -7.241834    0.000000    0.000000    0.000000    5.692930    -15.247663    8.777774    -3.113522    8.878623    -0.267707    4.637815    -6.077184    -4.493695    0.000000    0.000000    0.000000    
131.073135    96.537018    46.655216    -7.582192    -1.805528    83.900490    3.910439    -7.201626    -2.234819    1.097765    8.765284    -2.565127    -5.449620    26.407911    -0.262084    1.430842    -5.239856    -0.543375    8.172411    4.357900    -6.365929    -76.563454    49.924885    6.707076    12.626248    -16.951239    -32.724113    -23.775272    -13.291872    -0.322137    -12.074968    1.020061    -2.379301    66.326172    53.731487    3.572355    -6.930785    -9.255483    26.908693    -6.958767    -7.959735    5.745635    3.793312    -2.731073    4.319381    -3.001778    4.929566    9.650521    -3.790633    3.698680    -6.810722    0.000000    0.000000    0.000000    5.434154    -14.530218    9.706750    -2.959734    6.679278    -0.948523    5.350903    -3.496364    -4.577706    0.000000    0.000000    0.000000    
131.391312    96.299591    46.795494    -7.579352    -1.585748    84.046921    3.762360    -7.389530    -2.128084    0.921967    8.935509    -2.443160    -5.359664    26.340343    -0.040259    1.382600    -5.860949    -0.301613    8.192818    4.272444    -6.411043    -76.185471    49.830952    6.411501    12.812616    -17.251360    -32.624245    -23.409315    -13.543384    -0.386047    -12.064419    0.874312    -2.224507    66.134560    53.620750    3.541744    -6.703262    -9.262609    26.651472    -7.227918    -8.053912    5.805205    3.634859    -2.824506    3.989240    -3.055351    5.513669    9.248407    -3.754339    2.554704    -6.143316    0.000000    0.000000    0.000000    5.139223    -13.912898    10.465194    -2.777211    4.971836    -1.602674    5.615934    -0.887766    -4.264463    0.000000    0.000000    0.000000    
131.698441    96.054962    46.935539    -7.566500    -1.332012    84.211807    3.641496    -7.554753    -2.030684    0.644404    9.089569    -2.322435    -5.238068    26.323637    0.133122    1.289221    -6.533742    -0.119132    8.224528    4.112550    -6.534429    -76.136383    49.827503    6.434303    13.258464    -17.741167    -32.397411    -23.050150    -13.905892    -0.572119    -12.027605    0.827639    -2.093912    65.879219    53.246353    3.688531    -6.545287    -9.053775    26.314713    -7.248771    -7.906591    5.865574    3.442927    -2.973179    3.715937    -3.071497    6.164553    9.254668    -3.751930    1.487280    -6.071985    0.000000    0.000000    0.000000    4.815225    -13.417337    10.852453    -2.606574    3.663758    -1.839105    5.976994    1.857172    -4.250712    0.000000    0.000000    0.000000    
132.004410    95.810455    47.061558    -7.539312    -1.028082    84.377579    3.427095    -7.690922    -1.896283    0.477247    9.205910    -2.165146    -5.099915    26.326220    0.276750    1.128157    -7.170489    0.017978    8.085417    4.091043    -6.754968    -75.331566    49.184376    5.856166    13.062801    -17.667952    -32.308407    -22.519297    -13.868921    -0.736568    -11.918895    0.585810    -1.990917    65.756760    53.254257    3.469077    -6.289604    -9.178175    26.077232    -7.577676    -8.097887    5.511776    3.190392    -3.090226    3.052512    -3.126001    6.758632    9.469152    -3.800443    0.445443    -5.813635    0.000000    0.000000    0.000000    4.508250    -13.088573    10.569079    -2.485738    2.881566    -1.968680    6.496361    4.463595    -3.784962    0.000000    0.000000    0.000000    
132.292633    95.569016    47.191826    -7.490876    -0.713496    84.603531    3.276467    -7.800012    -1.791064    0.167766    9.375691    -2.028270    -5.191150    25.910727    0.496203    1.375946    -7.171970    0.311613    8.198184    4.132734    -6.868674    -74.811302    48.876152    5.306011    13.119023    -17.917871    -32.221054    -21.839397    -14.101543    -0.848716    -11.902882    0.480424    -1.889028    65.542725    53.059090    3.638634    -6.157312    -8.971816    25.557905    -7.349743    -7.955503    5.761732    2.941909    -3.419512    3.245182    -3.051323    7.813293    8.645138    -3.941652    -0.648743    -5.489666    0.000000    0.000000    0.000000    4.137061    -12.837218    10.016481    -2.273201    2.565152    -1.678949    2.731373    6.686469    -2.833406    0.000000    0.000000    0.000000    
132.621582    95.309959    47.335983    -7.409117    -0.396654    84.760017    3.149497    -7.889565    -1.673060    -0.177651    9.456820    -1.875656    -5.224657    25.964285    0.717034    1.468860    -7.756375    0.559279    7.952351    4.041543    -6.968427    -74.273262    48.861168    5.151624    13.297706    -18.263300    -31.996717    -21.441206    -14.400897    -1.026225    -11.848845    0.360458    -1.595537    65.581390    52.600163    3.518119    -5.833775    -8.674004    25.134888    -7.592400    -7.752963    5.587609    2.733696    -3.560507    2.788678    -3.109700    8.611329    8.681013    -4.147432    -1.717011    -5.423196    0.000000    0.000000    0.000000    3.896891    -12.665348    9.099435    -2.372277    2.643735    -0.852525    2.002179    6.953030    -3.110672    0.000000    0.000000    0.000000    
132.898361    95.053772    47.449188    -7.400494    0.011659    84.902252    3.011271    -8.024680    -1.518467    -0.620958    9.566905    -1.677797    -5.060334    26.074352    0.906283    1.332380    -8.603039    0.747381    7.982353    3.929405    -7.098049    -73.806068    48.567894    4.777437    13.239192    -18.409122    -31.772861    -20.838190    -14.551155    -1.293523    -11.844207    0.217901    -1.490124    65.550201    52.579659    3.620981    -5.612318    -8.661642    24.614002    -7.758945    -7.817118    5.481789    2.432215    -3.888785    2.472337    -3.147268    9.552854    8.633473    -4.429798    -2.698174    -5.416210    0.000000    0.000000    0.000000    3.603352    -12.726377    7.990648    -2.529873    3.304318    0.175547    2.654688    4.540983    -3.926144    0.000000    0.000000    0.000000    
133.194916    94.792427    47.616810    -7.310178    0.258282    85.140182    2.846613    -8.016221    -1.352044    -0.791448    9.565215    -1.485387    -4.443114    25.636215    1.057928    0.482350    -8.313416    0.798916    7.955204    4.120423    -7.353767    -73.111282    48.176605    4.068762    13.296475    -18.555901    -31.591970    -20.476685    -14.690687    -1.410119    -11.908539    0.252124    -1.465868    65.487709    52.800083    3.716210    -5.618794    -8.730188    24.115744    -7.421991    -7.874929    5.190191    2.360692    -4.190277    2.226064    -3.251340    10.651355    8.342534    -4.672673    -3.831418    -5.326196    0.000000    0.000000    0.000000    3.518946    -12.661522    6.784250    -2.722192    3.894584    1.419957    1.540052    3.241979    -3.997826    0.000000    0.000000    0.000000    
133.474731    94.530540    47.753548    -7.262089    0.621964    85.226448    2.827909    -8.060141    -1.187938    -1.392595    9.543035    -1.271006    -4.654707    25.897718    1.249567    0.948196    -9.028465    1.071813    7.952619    3.848814    -7.393519    -72.974815    48.289970    4.203652    13.478838    -18.858505    -31.367203    -20.250868    -14.946100    -1.603152    -11.692563    0.161084    -1.282014    65.324486    52.875481    3.852259    -5.374095    -8.679649    23.564280    -7.390347    -7.892965    5.056637    2.192825    -4.550196    2.029706    -3.437932    11.769029    8.252517    -4.912146    -4.843812    -5.261526    0.000000    0.000000    0.000000    3.230169    -12.660501    6.081748    -2.647353    4.197109    2.395785    0.230328    1.954590    -3.825434    0.000000    0.000000    0.000000    
133.797180    94.277649    47.945873    -7.070729    0.713918    85.474457    2.827024    -8.039341    -1.072357    -1.571987    9.656417    -1.138328    -4.609397    25.427162    1.414523    0.909657    -8.654154    1.258099    8.019923    3.928241    -7.500860    -72.502930    47.998619    3.575438    13.501383    -18.965551    -31.124058    -19.835682    -15.074461    -1.665448    -11.925438    0.098627    -1.121237    65.522659    52.862976    3.878145    -5.190070    -8.576802    23.056910    -7.470271    -7.836040    4.759577    2.298975    -4.768896    1.990103    -3.494250    13.049160    7.829978    -5.256385    -6.011809    -5.325633    0.000000    0.000000    0.000000    3.337809    -12.208485    5.167833    -2.845896    4.088452    2.882601    -0.003264    1.062345    -4.232109    0.000000    0.000000    0.000000    
134.087021    94.015762    48.146156    -6.916148    0.765666    85.657776    2.992268    -7.912710    -0.944743    -1.974542    9.523948    -0.987270    -4.774643    25.824223    1.535809    1.213448    -9.534404    1.425194    7.911257    3.772453    -7.537757    -72.217842    47.875755    3.564184    13.591511    -19.063650    -30.978212    -19.746544    -15.163956    -1.697888    -11.842280    0.244438    -0.945643    65.232063    52.781651    4.233474    -4.969306    -8.396361    22.522638    -7.227552    -7.711054    4.714971    2.491577    -5.049160    2.124305    -3.676831    14.193178    7.522253    -5.359859    -7.059723    -5.434432    0.000000    0.000000    0.000000    3.404535    -11.888023    5.209122    -2.787999    4.102818    3.395580    -0.299047    0.209217    -5.285900    0.000000    0.000000    0.000000    
134.382797    93.773148    48.354198    -6.770429    0.702743    85.851242    3.011777    -7.759525    -0.630806    -1.907468    9.391733    -0.678393    -4.395609    25.785055    1.327305    0.812667    -9.721379    1.156987    7.982763    3.982190    -7.835802    -71.645523    47.547604    2.603246    13.694708    -18.985714    -30.615185    -19.798447    -15.082572    -1.806630    -12.129470    0.166117    -1.098427    65.677872    53.170460    3.841486    -4.926798    -8.459076    22.105347    -6.894306    -7.777671    4.557064    2.786894    -5.338816    2.392871    -3.726545    15.521855    6.891895    -5.541458    -8.180806    -5.467584    0.000000    0.000000    0.000000    3.629555    -11.598040    5.547743    -2.764839    4.450720    3.746966    -1.589299    -1.028851    -6.447076    0.000000    0.000000    0.000000    
